<?xml version="1.0" encoding="utf-8"?>
<!-- Generator: Adobe Illustrator 16.0.0, SVG Export Plug-In . SVG Version: 6.00 Build 0)  -->
<!DOCTYPE svg PUBLIC "-//W3C//DTD SVG 1.1//EN" "http://www.w3.org/Graphics/SVG/1.1/DTD/svg11.dtd">
<svg version="1.1" id="Layer_1" xmlns="http://www.w3.org/2000/svg" xmlns:xlink="http://www.w3.org/1999/xlink" x="0px" y="0px"
	 width="150px" height="150px" viewBox="0 0 150 150" enable-background="new 0 0 150 150" xml:space="preserve">
<g>
	<g>
		<path d="M85.146,76.73l-54.43,61.227c-1.753,1.967-4.667,1.945-6.421,0l-9.337-10.262c-1.771-1.937-1.789-5.141,0-7.057
			l55.703-59.818"/>
	</g>
	<g>
		<path d="M74.175,64.604l18.542-19.056c5.809-5.376,9.379-12.309,12.533-19.568c0.383-0.885,0.762-1.774,1.137-2.666
			c1.946-4.63,0.531-7.831-4.183-8.675c-8.205-1.47-16.472-2.519-24.71-3.763c-0.917-0.136-1.816-0.394-2.724-0.595
			c-0.086-0.386-0.174-0.771-0.262-1.154c1.971-1.032,3.852-2.468,5.928-3.005c3.724-0.965,7.545-1.614,11.359-2
			c12.15-1.23,24.059-1.086,33.458,9.442c3.992,4.473,8.86,8.088,10.069,15.101c0.474,2.761,2.787,5.345,4.697,7.558
			c2.763,3.203,5.894,6.025,8.916,8.95c1.383,1.337,1.393,2.749,0.178,4.021c-2.668,2.796-5.385,5.549-8.217,8.141
			c-1.698,1.554-3.547,1.326-4.807-0.781c-2.334-3.903-4.672-7.821-6.77-11.88c-2.118-4.1-8.834-8.154-11.293-6.716
			c-2.532,1.48-5.959,3.78-8.56,6.513L81.75,72.948L74.175,64.604z"/>
	</g>
</g>
<g id="li_7_">
	<g>
		<g>
			<path d="M3.479,3.4c0.305-0.149,0.619-0.282,0.917-0.45c0.754-0.429,1.459-0.507,2.26-0.035c0.622,0.366,1.351,0.513,2.099,0.783
				c0.13-0.457,0.222-0.776,0.313-1.094c0.2-0.715,0.35-1.396,1.28-1.439c0.418-0.019,0.853-0.471,1.218-0.81
				c0.633-0.581,1.083-0.41,1.568,0.235c0.434,0.58,0.949,1.084,1.533,1.735c0.528-1.202,1.369-1.806,2.615-1.539
				c0.598,0.129,1.099,0.233,1.293,1.049c0.093,0.39,0.559,0.892,0.905,0.942c0.897,0.132,1.862,0.226,2.726,0.001
				c1.431-0.375,2.354,0.549,3.376,1.263c0.151,0.107,0.255,0.611,0.159,0.783c-0.418,0.747-0.158,1.307,0.206,1.958
				c0.164,0.29,0.027,0.796-0.016,1.198c-0.049,0.451-0.146,0.896-0.22,1.343c0.094,0.036,0.188,0.068,0.282,0.102
				c0.337-0.302,0.678-0.608,1.153-1.034c0.39,0.559,0.76,1.078,1.117,1.61c0.081,0.117,0.111,0.28,0.184,0.404
				c1.145,2.017,2.113,4.047,0.228,6.543c1.509-0.345,2.662-0.347,3.501-1.478c0.417-0.556,0.999-1.062,1.822-0.653
				c0.187,0.094,0.527-0.184,0.849-0.31c0.02,1.338,0.825,2.926-1.263,3.564c0.039,0.124,0.074,0.245,0.113,0.365
				c0.325,0.107,0.672,0.349,0.97,0.288c0.675-0.136,1.331-0.403,1.984-0.652c0.681-0.261,0.91-0.73,0.568-1.505
				c-0.591-1.341-0.58-1.352,0.617-2.019c0.306-0.17,0.613-0.335,0.903-0.498c1.612,1.883,1.582,4.522,0.023,6.404
				c-0.684,0.823-1.241,1.768-1.859,2.656c0.066,0.069,0.131,0.139,0.195,0.206c0.17-0.077,0.389-0.107,0.497-0.242
				c1.179-1.513,2.945-1.862,4.453-2.716c1.427-0.804,2.909-1.038,4.312,0.076c0.294,0.236,0.411,0.726,0.674,1.037
				c0.412,0.493,0.827,1.029,1.336,1.38c1.179,0.808,1.714,2.004,1.941,3.099c-0.58,0.417-1.016,0.761-1.482,1.053
				c-0.286,0.183-0.618,0.281-1.263,0.331c0.062,1.27,0.125,2.539,0.19,3.917c1.107-0.398,1.939-0.697,2.772-0.998
				c0.078,0.121,0.152,0.236,0.229,0.354c-0.338,0.632-0.738,1.238-0.988,1.908c-0.153,0.41-0.076,0.924-0.101,1.391
				c0.382-0.07,0.846-0.012,1.136-0.232c0.983-0.757,2.158-1.3,2.229-2.998c0.04-0.973,1.721-1.791,3.301-1.786
				c-0.241,1.761,0.964,3.432,0.264,5.239c-0.689-0.234-1.266-0.431-1.835-0.624c-0.473,1.364-0.915,2.627-1.374,3.945
				c0.292,0.083,0.618,0.173,1.015,0.286c0.071-0.355,0.131-0.667,0.191-0.971c0.038-0.025,0.086-0.066,0.095-0.059
				c0.505,0.447,1.034,0.861,1.485,1.369c0.139,0.157,0.163,0.613,0.063,0.84c-0.346,0.771-0.054,1.202,0.666,1.543
				c-0.416,0.446-0.774,0.833-1.133,1.218c0.612,0.661,2.169,0.44,2.849-0.618c0.433-0.672,0.684-1.801,0.484-2.557
				c-0.18-0.689-1.08-1.149-1.752-1.799c0.881-0.489,1.66-0.952,2.464-1.348c0.214-0.104,0.511,0.003,0.768,0.015
				c-0.014,0.279-0.007,0.561-0.051,0.833c-0.252,1.603-0.575,3.197-0.735,4.807c-0.041,0.421,0.367,0.948,0.662,1.342
				c1.859,2.483,1.833,5.472,1.919,8.434c-1.132,1.081-0.219,2.497-0.494,3.719c-0.108,0.474-0.162,0.964-0.241,1.443
				c0.836,0.221,0.836,0.221,1.162-1.074c0.165-0.653,0.335-1.304,0.597-2.302c1.422,1.236,2.693,2.341,3.963,3.445
				c-0.03,0.089-0.063,0.174-0.095,0.262c-0.397-0.127-0.848-0.158-1.183-0.392c-1.214-0.858-1.62-0.733-2.082,0.643
				c0.924,0.248,1.841,0.583,2.785,0.728c1.714,0.266,3.748-1.023,4.521-2.752c0.06-0.132,0.123-0.263,0.274-0.573
				c0.175,0.445,0.252,0.803,0.437,1.067c0.25,0.361,0.541,0.841,0.886,0.932c0.852,0.228,0.955,0.804,0.905,1.708
				c-0.4-0.365-0.73-0.664-1.057-0.961c-0.099,0.037-0.196,0.074-0.294,0.113c0.175,0.58,0.349,1.162,0.561,1.87
				c-0.516,0.113-0.878,0.194-1.607,0.354c0.467,0.457,0.752,0.736,1.038,1.017c0.076-0.092,0.151-0.18,0.229-0.267
				c0.217,0.589,0.433,1.176,0.652,1.765c0.096,0.038,0.195,0.077,0.294,0.117c0.234-0.475,0.522-0.926,0.682-1.427
				c0.163-0.521,0.202-1.088,0.295-1.634c0.103-0.008,0.209-0.017,0.314-0.024c0.292,2.007,0.587,4.016,0.92,6.292
				c0.201-0.485,0.302-0.728,0.568-1.373c0.636,1.451,1.157,2.64,1.68,3.827c0.327,0.743,0.683,1.471,0.985,2.222
				c0.27,0.674,0.542,1.36,0.724,2.07c0.498,1.938,1.321,3.672,2.599,5.113c1.437,1.621,2.482,3.423,3.267,5.566
				c0.767,2.099,2.159,3.921,3.294,5.852c0.127,0.217,0.33,0.444,0.542,0.521c1.788,0.642,2.241,2.496,3.06,4.02
				c0.859,1.6,1.596,3.35,3.188,4.23c1.005,0.559,2.12,0.871,3.187,1.293c1.684,0.671,3.375,1.33,5.053,2.015
				c0.279,0.113,0.594,0.282,0.76,0.528c1.552,2.306,3.908,2.465,6.18,2.898c0.481,0.09,0.979,0.262,1.391,0.543
				c1.021,0.698,1.941,1.61,3.009,2.193c0.735,0.4,1.647,0.5,2.489,0.562c1.564,0.112,2.804,0.789,3.91,2.016
				c0.916,1.015,2.047,1.793,3.043,2.724c0.277,0.259,0.435,0.683,0.633,1.04c0.384,0.702,0.754,1.404,1.293,2.413
				c-0.648-0.047-1.127-0.108-1.609-0.112c-0.35-0.004-0.717,0.008-1.05,0.117c-1.446,0.467-2.745-0.312-3.261-2.236
				c0.914,0.623,1.656,1.131,2.574,1.76c-0.1-0.499-0.082-0.938-0.263-1.213c-0.696-1.055-1.45-2.064-2.206-3.07
				c-0.178-0.236-0.427-0.489-0.682-0.551c-1.879-0.459-3.764-0.899-5.656-1.274c-0.464-0.09-0.973,0.083-1.342,0.12
				c-1.053-0.682-2.064-1.332-3.271-2.105c-0.271,1.688,0.528,3.459-1.299,4.138c-1.124-0.671-1.541-1.566-1.148-2.795
				c0.222-0.683-0.064-0.882-0.56-1.056c-1.347-0.455-3.128,0.416-3.938,1.959c-0.098,0.183-0.18,0.371-0.305,0.635
				c-0.357-1.495-0.228-1.881,1.153-3.646c-1.729-0.15-3.146,0.877-3.562,2.622c-0.175,0.731-0.332,1.429-1.355,1.433
				c0.291-0.816,0.564-1.6,0.84-2.379c0.762-2.152,0.734-2.117-0.902-3.543c-0.924-0.808-1.836-1.283-3.082-1.212
				c-1.117,0.062-2.271-0.202-3.371-0.497c-0.961-0.256-1.687-0.873-2.047-2.035c-0.425-1.384-1.949-1.552-2.771-0.348
				c-0.125,0.184,0.009,0.885,0.157,0.939c0.631,0.246,0.705,0.705,0.842,1.355c0.191,0.907,0.367,1.94,1.363,2.391
				c0.231,0.106,0.387,0.52,0.498,0.824c0.102,0.271,0.141,0.596,0.129,0.893c-0.094,2.826,0.908,4.972,3.193,6.355
				c0.268,0.161,0.567,0.357,0.725,0.627c0.617,1.062,1.363,0.941,2.248,0.315c-0.139-0.336-0.283-0.692-0.43-1.056
				c2.092-0.479,2.606-0.112,2.387,1.656c1.041,0.92,2.166,1.084,3.474,0.737c1.164-0.304,2.392-0.325,3.581-0.519
				c0.355-0.059,0.689-0.278,0.861-0.354c0.018,0.587-0.1,1.266,0.086,1.816c0.205,0.602,0.623,1.182,1.078,1.594
				c0.528,0.482,1.235,0.596,1.746-0.072c0.392-0.509,0.645-1.146,1-1.802c0.479,0.211,0.916,0.401,1.453,0.638
				c-0.312,0.686-0.576,1.33-0.892,1.945c-0.392,0.755-0.788,1.562-1.72,0.607c-0.102-0.104-0.481-0.014-0.631,0.121
				c-0.14,0.123-0.221,0.441-0.192,0.653c0.179,1.341,1.368,1.699,2.12,2.458c0.455,0.459,1.24,0.836,1.82,0.762
				c0.741-0.104,1.443-0.666,2.123-1.106c0.178-0.113,0.199-0.511,0.312-0.835c1.441,1.585,1.012,3.584,1.34,5.521
				c-0.43-0.255-0.748-0.447-1.131-0.677c-0.496,0.896-0.98,1.761-1.46,2.622c0.028,0.08,0.056,0.162,0.083,0.241
				c0.777-0.304,1.551-0.609,2.329-0.912c0.774-0.304,1.526-0.726,2.327-0.877c0.719-0.14,1.205,0.235,0.961,1.214
				c-0.201,0.8-0.336,1.619-0.512,2.469c-0.461-0.052-0.861-0.098-1.429-0.162c-0.265,1.34-0.651,2.648-0.75,3.982
				c-0.112,1.596,0.479,2.246,1.904,2.557c0.438,0.094,0.88,0.189,1.378,0.299c0.02,0.332,0.038,0.654,0.057,0.986
				c-0.365,0.152-0.684,0.287-1.145,0.477c0.525,0.408,0.961,0.746,1.597,1.24c-0.146-0.668-0.244-1.113-0.356-1.627
				c0.627-0.217,1.242-0.445,1.634,0.326c0.724,1.439,2.026,1.758,3.292,2.039c0.748,0.166,1.016,0.531,1.187,1.278
				c0.41,1.776,0.577,1.854,1.964,0.84c0.891-0.651,1.377,0.241,2.064,0.45c0.109,1.101-1.096,2.049-0.271,3.21
				c1.561-2.153,1.561-2.153,3.187-0.539c-0.976,1.344,0.006,2.571,0.328,3.841c-1.562,0.934-4.505,0.225-5.288-1.477
				c-0.629-1.367-1.6-2.123-2.689-2.836c-5.324-3.479-10.236-7.58-15.15-11.711c-2.92-2.457-6.202-4.393-9.238-6.692
				c-4.372-3.318-8.671-6.759-12.996-10.153c-0.068-0.055-0.107-0.154-0.041-0.511c0.975,0.498,1.969,0.953,2.915,1.511
				c0.517,0.303,0.947,0.688,1.366-0.201c-0.268-0.152-0.527-0.302-0.771-0.439c0.428-2.151-0.67-3.65-1.801-5.484
				c-0.9,0.918-1.742,1.658-2.457,2.528c-0.869,1.059-1.357,1.157-2.34,0.261c-3.773-3.443-7.57-6.854-11.322-10.327
				c-1.482-1.37-2.89-2.836-4.281-4.317c-0.287-0.308-0.346-0.871-0.574-1.496c1.246,0.13,1.894,0.636,2.549,1.482
				c0.851,1.098,1.996,1.924,3.034,2.848c0.643,0.574,1.311,1.113,2.133,1.565c-0.448-1.196-0.896-2.397-1.301-3.483
				c-0.49-0.34-1.212-0.568-1.371-1.03c-0.172-0.491,0.195-1.204,0.339-1.882c-1.527-1.221-1.947-1.352-3.009-0.875
				c-1.454-1.791-3.514-3.252-2.662-6.303c-0.095-0.023-0.193-0.051-0.288-0.072c-0.676,0.807-1.349,1.613-2.094,2.511
				c-1.596-1.386-4.07-1.521-4.665-4.329c0.615-0.662,1.262-1.355,1.904-2.053c-0.043-0.069-0.083-0.141-0.123-0.206
				c-0.357,0.083-0.711,0.167-1.063,0.251c-1.025-2.057-1.122-2.126-3.054-2.075c-0.167-0.875-0.258-1.823-0.543-2.688
				c-0.26-0.783-0.652-1.547-1.122-2.201c-0.672-0.932-1.15-2.262-2.619-1.977c-0.123,0.024-0.309-0.146-0.425-0.271
				c-1.126-1.234-2.273-2.454-3.347-3.742c-0.239-0.286-0.245-0.826-0.304-1.259c-0.16-1.217,0.039-2.545-1.024-3.507
				c0.186-0.363,0.359-0.709,0.57-1.125c-0.935-0.286-1.261,0.386-1.401,1.065c-0.154,0.76-0.405,1.442-1.155,1.189
				c-0.542-0.183-1.211-0.724-1.389-1.274c-0.5-1.551-0.802-3.186-1.115-4.798c-0.057-0.292,0.188-0.649,0.316-1.041
				c-0.63-0.674-1.042-1.527-2.349-1.163c-0.707,0.199-1.707-0.623-2.498-1.125c-0.751-0.478-1.438-0.95-1.427-2.26
				c0.005-0.536-1.167-1.461-1.878-1.56c-1.798-0.249-2.661-1.676-3.614-2.971c-0.731-0.994-1.208-2.207-1.873-3.266
				c-0.376-0.606-0.917-1.084-1.361-1.643c-0.374-0.472-0.726-0.96-1.066-1.461c-0.159-0.237-0.233-0.555-0.407-0.779
				c-2.003-2.592-4.009-5.181-6.044-7.74c-0.217-0.269-0.651-0.325-1.048-0.51c-0.029-0.38-0.061-0.829-0.091-1.24
				c-1.325-0.811-2.621-1.605-3.712-2.272c0.251-0.831,0.63-1.654,0.676-2.497c0.013-0.238-0.951-0.544-1.575-0.875
				c-0.027-0.104-0.052-0.574-0.269-0.87c-0.17-0.233-0.581-0.254-0.881-0.37c-0.083,0.359-0.206,0.712-0.239,1.077
				c-0.025,0.265,0.065,0.545,0.106,0.818c-0.106,0.069-0.211,0.139-0.317,0.209c-0.654-0.943-1.306-1.886-1.96-2.831
				c-0.109,0.045-0.216,0.091-0.326,0.133c0.35,1.271,0.52,2.643,1.088,3.784c0.839,1.679,2.029,3.142,2.938,4.781
				c0.597,1.078,0.965,2.304,1.436,3.464c-0.089,0.071-0.177,0.141-0.264,0.213c-0.274-0.235-0.628-0.413-0.818-0.714
				c-1.263-2.024-2.651-3.983-3.693-6.142c-0.955-1.984-1.48-4.212-2.287-6.291c-0.771-1.997-1.403-4.129-3.288-5.308
				c-2.218-1.384-4.083-3.23-5.77-5.318C2.012,17.274,1.162,16.4,0.349,15.49c0.683-0.583,1.333-0.589,2.054,0.358
				c2.968,3.871,7.01,6.23,10.715,9.07c0.803,0.613,1.615,0.35,1.885-0.689c0.567-2.204,1.016-4.443-0.681-6.391
				c-0.282-0.322-0.521-0.719-0.687-1.126c-0.431-1.043-1.096-1.554-2.167-1.547c-0.312,0.001-0.71-0.387-0.908-0.717
				c-0.376-0.623-0.64-1.332-1.092-2.323c-0.288,0.48-0.496,0.764-0.639,1.081c-0.648,1.423-1.208,2.902-1.966,4.249
				c-0.19,0.335-1.007,0.241-1.536,0.345c0.002-0.528-0.134-1.12,0.035-1.579c0.354-0.98,0.889-1.891,0.401-3.087
				c-0.864,0.979-1.651,0.773-2.346-0.357c-0.198,0.371-0.3,0.561-0.414,0.779C1.621,12.25,0.554,10.775,0.034,8.91
				c-0.102-0.367,0.042-0.889,0.222-1.248c0.072-0.143,0.568-0.124,0.832-0.028c0.228,0.082,0.396,0.371,0.725,0.702
				C2.09,6.913,2.341,5.637,2.59,4.359"/>
		</g>
		<g>
			<path d="M34.506,66.495c-0.434-0.815-0.916-1.606-1.288-2.451c-0.206-0.465-0.236-1.024-0.348-1.542
				c0.106-0.051,0.208-0.105,0.312-0.159c0.264,0.354,0.569,0.678,0.79,1.065c0.681,1.184,1.308,2.407,1.99,3.589
				c0.708,1.226,1.662,2.133,2.745,3.009c1.592,1.293,2.929,2.967,4.362,4.494c1.333,1.418,2.549,2.998,3.998,4.255
				c2.999,2.604,6.107,5.054,9.185,7.552c1.65,1.342,3.342,2.627,4.98,3.986c0.46,0.382,0.829,0.917,1.177,1.432
				c0.91,1.349,2.035,2.301,3.522,2.836c0.598,0.213,1.07,0.926,1.538,1.473c0.337,0.39,0.57,0.885,0.851,1.331
				c-0.065,0.098-0.13,0.194-0.194,0.294c-0.792-0.585-1.604-1.129-2.363-1.76c-5.592-4.641-11.176-9.282-16.741-13.963
				c-1.066-0.896-2.026-1.949-3.046-2.918c-0.361-0.343-0.761-0.641-1.142-0.961"/>
		</g>
		<g>
			<path d="M35.204,63.81c-1.188-2.029-2.679-3.86-4.141-5.678c-0.717-0.895-1.708-1.519-2.493-2.352
				c-3.513-3.718-6.85-7.608-9.805-11.904c2.051,0.549,3.685,1.783,4.974,3.598c0.381,0.533,0.675,1.155,1.106,1.63
				c2.974,3.282,5.977,6.53,8.958,9.803c0.437,0.481,0.773,1.067,1.203,1.554c0.633,0.719,1.355,1.352,1.961,2.096
				c0.64,0.787,1.193,1.662,1.907,2.674C37.211,65.383,36.102,65.335,35.204,63.81z"/>
		</g>
		<g>
			<path d="M116.789,117.703c-0.314-1.266-0.557-2.235-0.811-3.266c-0.625,0.379-1.069,0.65-1.645,1.002
				c0.443,0.804,0.893,1.617,1.354,2.455c-0.906,0.715-1.83,1.438-2.828,2.223c-0.406-0.312-0.416-0.622-0.064-1.27
				c0.459-0.842,0.637-1.869,0.928-2.793c-1.662-0.871-1.662-0.871-1.537-2.772c-1.295-0.638-1.42-1.472-0.406-2.556
				c0.378-0.403,0.683-0.896,1.103-1.455c0.16,0.482,0.272,0.824,0.392,1.17c-0.008-0.123-0.012-0.242-0.018-0.362
				c0.453,0.124,0.934,0.178,1.344,0.396c0.381,0.205,0.687,0.58,0.784,0.668c1.112,0.09,1.97,0.159,2.827,0.228
				c0.073,0.098,0.145,0.194,0.217,0.296C116.615,113.184,117.643,115.6,116.789,117.703z"/>
		</g>
		<g>
			<path d="M122.266,132.059c3.567-0.537,2.892-3.148,2.01-6.006c1.177,0.619,2.018,1.201,2.752,0.371
				c-0.074,1.543-0.148,3.047-0.226,4.649c-1.278,0.651-2.627,1.34-4.071,2.075C122.533,132.682,122.415,132.409,122.266,132.059z"
				/>
		</g>
		<g>
			<path d="M129.896,116.716c0.84,0.685,2.211,0.845,2.672,2.681c-1.508-0.375-2.86-0.717-4.44-1.111
				C128.777,117.707,129.302,117.243,129.896,116.716z"/>
		</g>
		<g>
			<path d="M50.838,26.93c0.832,0.498,1.328,1.343,0.875,1.887c-0.287,0.342-0.965,0.289-1.635,0.453
				C50.412,28.231,50.628,27.576,50.838,26.93z"/>
		</g>
	</g>
</g>
</svg>
