<?xml version="1.0" encoding="utf-8"?>
<!-- Generator: Adobe Illustrator 16.0.0, SVG Export Plug-In . SVG Version: 6.00 Build 0)  -->
<!DOCTYPE svg PUBLIC "-//W3C//DTD SVG 1.1//EN" "http://www.w3.org/Graphics/SVG/1.1/DTD/svg11.dtd">
<svg version="1.1" id="Layer_1" xmlns="http://www.w3.org/2000/svg" xmlns:xlink="http://www.w3.org/1999/xlink" x="0px" y="0px"
	 width="107.5px" height="144px" viewBox="-2 -2.667 107.5 144" enable-background="new -2 -2.667 107.5 144" xml:space="preserve">
<path fill="#FFFFFF" d="M99.5,82.083c-3.313,0-6,2.687-6,6c0,0.643,0.104,1.26,0.29,1.841l-39.75,39.749V8.763
	c2.042-0.957,3.46-3.025,3.46-5.43c0-3.313-2.687-6-6-6s-6,2.687-6,6c0,2.596,1.652,4.8,3.959,5.636v120.819
	c-0.09,0.037-0.176,0.08-0.263,0.122L9.576,90.29C9.847,89.606,10,88.863,10,88.083c0-3.313-2.687-6-6-6s-6,2.687-6,6s2.687,6,6,6
	c0.688,0,1.348-0.122,1.963-0.335l40.004,40.004c-0.138,0.505-0.217,1.033-0.217,1.581c0,3.313,2.687,6,6,6s6-2.687,6-6
	c0-0.688-0.122-1.347-0.335-1.963l39.757-39.756c0.716,0.302,1.503,0.469,2.328,0.469c3.313,0,6-2.687,6-6
	S102.813,82.083,99.5,82.083z"/>
</svg>
